<?xml version="1.0" standalone="no"?>
<!DOCTYPE svg PUBLIC "-//W3C//DTD SVG 20010904//EN"
 "http://www.w3.org/TR/2001/REC-SVG-20010904/DTD/svg10.dtd">
<svg version="1.0" xmlns="http://www.w3.org/2000/svg"
 width="237.000000pt" height="237.000000pt" viewBox="0 0 237.000000 237.000000"
 preserveAspectRatio="xMidYMid meet">
<metadata>
Created by potrace 1.14, written by Peter Selinger 2001-2017
</metadata>
<g transform="translate(0.000000,237.000000) scale(0.100000,-0.100000)"
fill="#000000" stroke="none">
<path d="M2097 2154 c-1 -1 -31 -4 -67 -8 -79 -7 -120 -13 -185 -28 -58 -14
-63 -15 -72 -17 -40 -7 -27 -25 133 -185 92 -91 171 -166 175 -166 7 0 20 29
25 55 1 6 7 35 13 65 16 77 18 87 26 155 4 32 9 68 11 80 7 34 -5 53 -32 51
-14 0 -26 -2 -27 -2z"/>
<path d="M1615 2055 c-16 -7 -33 -11 -37 -8 -5 2 -8 1 -8 -4 0 -4 -15 -14 -32
-21 -107 -44 -240 -118 -317 -176 -29 -23 -60 -45 -69 -51 -17 -11 -26 -19
-93 -81 -67 -62 -159 -163 -159 -174 0 -6 -4 -10 -9 -10 -4 0 -21 -19 -37 -42
-16 -24 -35 -47 -41 -51 -7 -4 -13 -15 -13 -22 0 -8 -4 -15 -8 -15 -4 0 -23
-24 -41 -54 -18 -30 -38 -57 -46 -59 -7 -3 -58 -4 -114 -1 l-101 4 -136 -135
c-75 -75 -134 -139 -130 -142 3 -3 74 -7 157 -9 84 -2 156 -7 160 -11 4 -4 -7
-39 -26 -78 -55 -117 -63 -96 98 -257 80 -78 156 -153 169 -166 l25 -23 89 40
c49 21 93 36 97 31 5 -4 9 -75 11 -158 1 -83 4 -154 7 -157 3 -3 51 40 106 95
55 55 98 101 96 103 -1 2 7 9 20 16 44 23 54 59 51 174 -2 97 -1 107 17 112
10 4 19 11 19 16 0 5 4 9 9 9 8 0 93 54 122 78 8 6 43 35 79 64 77 62 212 195
261 258 41 53 119 166 119 174 0 3 14 28 30 54 17 27 30 57 30 66 0 9 4 16 9
16 4 0 16 21 26 48 10 26 22 51 26 56 5 6 9 20 9 32 0 13 5 26 10 29 6 4 8 11
5 16 -4 5 -1 9 4 9 7 0 7 7 -1 20 -21 34 -382 392 -398 395 -8 1 -28 -3 -45
-10z m30 -261 c79 -37 2 -89 -91 -61 -23 7 -36 19 -44 40 -5 17 -10 31 -10 32
0 1 25 3 55 4 35 1 69 -5 90 -15z"/>
</g>
</svg>
